<svg width="18" height="18" fill="none" xmlns="http://www.w3.org/2000/svg">
<path fill="#343434" fill-opacity="0.9" d="M6.36997 2.51C6.18997 3.15 6.09997 3.82 6.09997 4.5C6.09997 8.58 9.41997 11.9 13.5 11.9C14.18 11.9 14.85 11.81 15.49 11.63C14.45 14.19 11.93 16 8.99997 16C5.13997 16 1.99997 12.86 1.99997 9C1.99997 6.07 3.80997 3.55 6.36997 2.51ZM8.99997 0C4.02997 0 -3.05176e-05 4.03 -3.05176e-05 9C-3.05176e-05 13.97 4.02997 18 8.99997 18C13.97 18 18 13.97 18 9C18 8.54 17.96 8.08 17.9 7.64C16.92 9.01 15.32 9.9 13.5 9.9C10.52 9.9 8.09997 7.48 8.09997 4.5C8.09997 2.69 8.98997 1.08 10.36 0.0999999C9.91997 0.0399999 9.45997 0 8.99997 0Z"/>
</svg>
